<svg width="16" height="18" viewBox="0 0 16 18" fill="none" xmlns="http://www.w3.org/2000/svg">
<path d="M8 7L8 17M8 17L11 14M8 17L5 14" stroke="#7662FA" stroke-width="1.5" stroke-linecap="round" stroke-linejoin="round"/>
<path d="M1.93782 11.5C1.32344 10.4359 1 9.22876 1 8C1 6.77124 1.32344 5.56413 1.93782 4.5C2.5522 3.43586 3.43587 2.5522 4.5 1.93782C5.56413 1.32344 6.77124 1 8 1C9.22876 1 10.4359 1.32344 11.5 1.93782C12.5641 2.5522 13.4478 3.43587 14.0622 4.5C14.6766 5.56413 15 6.77124 15 8C15 9.22876 14.6766 10.4359 14.0622 11.5" stroke="#7662FA" stroke-width="1.5" stroke-linecap="round" stroke-linejoin="round"/>
</svg>
