<svg width="32" height="32" viewBox="0 0 32 32" fill="none" xmlns="http://www.w3.org/2000/svg">
<circle cx="16" cy="16" r="15.5" fill="white" stroke="#C2C5CA"/>
<path d="M23.8758 16.1749C23.8758 15.5274 23.8222 15.0549 23.7061 14.5649H16.1615V17.4874H20.59C20.5008 18.2136 20.0186 19.3074 18.9472 20.0424L18.9322 20.1402L21.3176 21.9512L21.4829 21.9674C23.0007 20.5936 23.8758 18.5724 23.8758 16.1749Z" fill="#4285F4"/>
<path d="M16.161 23.875C18.3306 23.875 20.152 23.175 21.4824 21.9675L18.9467 20.0424C18.2681 20.5062 17.3574 20.8299 16.161 20.8299C14.036 20.8299 12.2325 19.4562 11.5895 17.5574L11.4953 17.5653L9.01486 19.4466L8.98242 19.5349C10.3038 22.1074 13.0181 23.875 16.161 23.875Z" fill="#34A853"/>
<path d="M11.59 17.5575C11.4203 17.0675 11.3222 16.5425 11.3222 16C11.3222 15.4574 11.4203 14.9325 11.5811 14.4425L11.5766 14.3381L9.06503 12.4266L8.98285 12.4649C8.43824 13.5325 8.12573 14.7312 8.12573 16C8.12573 17.2687 8.43824 18.4674 8.98285 19.5349L11.59 17.5575Z" fill="#FBBC05"/>
<path d="M16.161 11.17C17.6699 11.17 18.6878 11.8087 19.2682 12.3425L21.536 10.1725C20.1432 8.90375 18.3306 8.125 16.161 8.125C13.0181 8.125 10.3038 9.89249 8.98242 12.465L11.5806 14.4425C12.2325 12.5437 14.036 11.17 16.161 11.17Z" fill="#EB4335"/>
</svg>
