<svg width="32" height="32" viewBox="0 0 32 32" fill="none" xmlns="http://www.w3.org/2000/svg">
<circle cx="16" cy="16" r="16" fill="#201C39"/>
<path d="M22.75 12.25C22.75 11.4216 22.0784 10.75 21.25 10.75H10.75C9.92157 10.75 9.25 11.4216 9.25 12.25V19.75C9.25 20.5784 9.92157 21.25 10.75 21.25H13H16H19H21.25C22.0784 21.25 22.75 20.5784 22.75 19.75V12.25Z" stroke="white" stroke-width="1.125" stroke-linejoin="round"/>
<path d="M16 16.375L15.7268 16.8667L16 17.0185L16.2732 16.8667L16 16.375ZM23.0232 13.1167C23.2947 12.9658 23.3926 12.6234 23.2417 12.3518C23.0908 12.0803 22.7484 11.9824 22.4768 12.1333L23.0232 13.1167ZM8.97683 13.1167L15.7268 16.8667L16.2732 15.8833L9.52317 12.1333L8.97683 13.1167ZM16.2732 16.8667L23.0232 13.1167L22.4768 12.1333L15.7268 15.8833L16.2732 16.8667Z" fill="white"/>
</svg>
