<svg width="24" height="24" viewBox="0 0 24 24" fill="none" xmlns="http://www.w3.org/2000/svg">
<circle cx="12" cy="12" r="9" stroke="#0366FF" stroke-width="1.5"/>
<path d="M18 18L6 6" stroke="#0366FF" stroke-width="1.5" stroke-linecap="round" stroke-linejoin="round"/>
<circle cx="12" cy="12" r="9" stroke="#0366FF" stroke-width="1.5"/>
<path d="M18 18L6 6" stroke="#0366FF" stroke-width="1.5" stroke-linecap="round" stroke-linejoin="round"/>
<path d="M5.98569 15L8.20329 8.444H10.0161L12.2337 15H10.7465L10.3065 13.6624H7.90409L7.46409 15H5.98569ZM8.28249 12.4744H9.92809L8.92489 9.3768H9.29449L8.28249 12.4744ZM14.9079 15.1056C14.4386 15.1056 14.0191 14.9941 13.6495 14.7712C13.2799 14.5483 12.9866 14.2461 12.7695 13.8648C12.5583 13.4835 12.4527 13.0611 12.4527 12.5976C12.4527 12.1283 12.5613 11.7059 12.7783 11.3304C12.9954 10.9491 13.2887 10.6469 13.6583 10.424C14.0279 10.2011 14.4415 10.0896 14.8991 10.0896C15.2511 10.0896 15.5621 10.1571 15.8319 10.292C16.1077 10.4211 16.3247 10.6059 16.4831 10.8464L16.2807 11.1104V8.3384H17.6007V15H16.3687V14.12L16.4919 14.3928C16.3277 14.6275 16.1047 14.8064 15.8231 14.9296C15.5415 15.0469 15.2365 15.1056 14.9079 15.1056ZM15.0663 13.9176C15.3069 13.9176 15.5181 13.8619 15.6999 13.7504C15.8818 13.6389 16.0226 13.4835 16.1223 13.284C16.2279 13.0845 16.2807 12.8557 16.2807 12.5976C16.2807 12.3395 16.2279 12.1107 16.1223 11.9112C16.0226 11.7117 15.8818 11.5563 15.6999 11.4448C15.5181 11.3333 15.3069 11.2776 15.0663 11.2776C14.8258 11.2776 14.6087 11.3363 14.4151 11.4536C14.2274 11.5651 14.0807 11.7205 13.9751 11.92C13.8695 12.1136 13.8167 12.3395 13.8167 12.5976C13.8167 12.8557 13.8695 13.0845 13.9751 13.284C14.0807 13.4835 14.2274 13.6389 14.4151 13.7504C14.6087 13.8619 14.8258 13.9176 15.0663 13.9176Z" fill="#0366FF"/>
</svg>
