<svg width="24" height="24" viewBox="0 0 24 24" fill="none" xmlns="http://www.w3.org/2000/svg">
<path d="M11.5356 6.70035C11.8073 6.33807 12.2949 6.21002 12.7036 6.40496C15.3504 7.66721 17.1516 9.07214 18.6171 11.4299C18.853 11.8094 18.7821 12.2991 18.4662 12.615L14.7067 16.3744C13.1738 17.9074 10.7247 18.0185 9.05925 16.6306V16.6306C7.3449 15.202 7.0504 12.6806 8.38935 10.8954L11.5356 6.70035Z" stroke="#0366FF" stroke-width="1.5"/>
<path d="M18.5842 4.43512L12 6.08117C15.3096 7.51353 17.3854 9.06205 19 12.0812L19.819 5.5293C19.9061 4.83203 19.2659 4.26469 18.5842 4.43512Z" stroke="#0366FF" stroke-width="1.5" stroke-linecap="round" stroke-linejoin="round"/>
<path d="M14.4316 21.7862L15.6178 18.2278C15.852 17.5251 15.6691 16.7503 15.1453 16.2265C15.0662 16.1474 14.9368 16.1511 14.861 16.2332C13.9665 17.2014 13.3325 17.6845 12.5969 17.9321C12.296 18.0334 12.1108 18.3582 12.2287 18.6529L13.493 21.8138C13.666 22.2463 14.2843 22.2281 14.4316 21.7862Z" stroke="#0366FF" stroke-width="1.5" stroke-linecap="round" stroke-linejoin="round"/>
<path d="M2.37525 11.3935L5.41602 9.87313C6.41316 9.37457 7.58683 9.37457 8.58397 9.87313C8.79324 9.97777 8.84502 10.253 8.68661 10.4252C7.87174 11.3109 7.32299 11.8551 7.10225 12.5428C7.01222 12.8234 6.7489 13.0393 6.45829 12.9909L2.51666 12.3339C2.03901 12.2543 1.94214 11.6101 2.37525 11.3935Z" stroke="#0366FF" stroke-width="1.5" stroke-linecap="round" stroke-linejoin="round"/>
<path d="M13 12.0812L6.99998 18.0812" stroke="#0366FF" stroke-width="1.5" stroke-linecap="round" stroke-linejoin="round"/>
</svg>
