<svg width="16" height="18" viewBox="0 0 16 18" fill="none" xmlns="http://www.w3.org/2000/svg">
<path d="M8 11L8 1M8 1L5 4M8 1L11 4" stroke="#F8D000" stroke-width="1.5" stroke-linecap="round" stroke-linejoin="round"/>
<path d="M14.0622 6.5C14.6766 7.56413 15 8.77124 15 10C15 11.2288 14.6766 12.4359 14.0622 13.5C13.4478 14.5641 12.5641 15.4478 11.5 16.0622C10.4359 16.6766 9.22876 17 8 17C6.77124 17 5.56413 16.6766 4.5 16.0622C3.43587 15.4478 2.5522 14.5641 1.93782 13.5C1.32344 12.4359 1 11.2288 1 10C1 8.77124 1.32344 7.56414 1.93782 6.5" stroke="#F8D000" stroke-width="1.5" stroke-linecap="round" stroke-linejoin="round"/>
</svg>
